<?xml version="1.0" standalone="no"?>
<!DOCTYPE svg PUBLIC "-//W3C//DTD SVG 20010904//EN"
 "http://www.w3.org/TR/2001/REC-SVG-20010904/DTD/svg10.dtd">
<svg version="1.0" xmlns="http://www.w3.org/2000/svg"
 width="512.000000pt" height="512.000000pt" viewBox="0 0 512.000000 512.000000"
 preserveAspectRatio="xMidYMid meet">
<metadata>
Created by potrace 1.14, written by Peter Selinger 2001-2017
</metadata>
<g transform="translate(0.000000,512.000000) scale(0.100000,-0.100000)"
fill="#000000" stroke="none">
<path d="M2260 5069 c-293 -34 -590 -125 -865 -267 l-130 -67 -470 143 c-363
111 -479 143 -508 139 -95 -13 -177 -98 -177 -186 0 -25 52 -268 116 -539
l117 -493 -66 -137 c-125 -262 -188 -467 -233 -762 -25 -161 -25 -528 0 -695
83 -568 351 -1091 754 -1476 396 -378 855 -602 1409 -686 137 -21 528 -24 658
-5 587 85 1074 323 1474 723 408 409 657 919 727 1489 13 104 15 187 11 365
-7 301 -32 459 -118 721 -307 945 -1143 1625 -2131 1733 -112 13 -458 12 -568
0z m1739 -1034 c145 -51 210 -219 136 -353 -32 -59 -90 -107 -146 -122 -24 -7
-523 -9 -1401 -8 l-1363 3 -45 25 c-187 105 -164 384 37 456 59 21 2723 20
2782 -1z m-614 -934 c-28 -26 -432 -408 -899 -847 l-850 -799 1175 -5 c1303
-6 1209 0 1281 -72 52 -53 72 -103 73 -178 0 -110 -65 -201 -168 -236 -36 -12
-238 -14 -1408 -12 l-1366 3 -49 30 c-127 79 -161 235 -76 358 23 33 398 394
967 930 l930 876 220 1 220 0 -50 -49z"/>
</g>
</svg>
